<svg width="40" height="40" viewBox="0 0 40 40" fill="none" xmlns="http://www.w3.org/2000/svg">
<g clip-path="url(#clip0_3842_32923)">
<path d="M34.1631 27.4908L32.1634 27.1576C31.037 29.2876 29.2949 31.0291 27.1643 32.1552C27.3564 32.8055 27.4683 33.4769 27.4976 34.1543C27.533 34.715 27.4767 35.2776 27.3309 35.8202C31.1132 34.1303 34.1391 31.1053 35.8294 27.3242L34.1631 27.4908ZM12.8334 32.1552C10.7028 31.0291 8.96075 29.2876 7.8343 27.1576L5.83465 27.4908H4.16827C5.90879 31.2371 8.91936 34.2468 12.6668 35.9868C12.521 35.4442 12.4647 34.8815 12.5002 34.3209C12.5154 33.5875 12.6274 32.8593 12.8334 32.1552ZM27.3309 4.16833C27.4767 4.71087 27.533 5.27356 27.4976 5.83422C27.4683 6.51165 27.3564 7.18298 27.1643 7.83329C29.2949 8.9594 31.037 10.7009 32.1634 12.8309L34.1631 12.4978H35.8294C34.1455 8.75143 31.111 5.77726 27.3309 4.16833ZM12.5002 5.83422C12.4647 5.27356 12.521 4.71087 12.6668 4.16833C8.88456 5.85818 5.85862 8.88323 4.16827 12.6644H5.83465L7.8343 12.9975C8.96075 10.8675 10.7028 9.12599 12.8334 7.99988C12.6274 7.29581 12.5154 6.56763 12.5002 5.83422Z" fill="#FC509F"/>
<path d="M39.9954 19.9929C40.0175 21.0877 39.712 22.164 39.1183 23.0841C38.5245 24.0042 37.6694 24.7261 36.6626 25.1572C35.9167 25.6286 35.0447 25.8611 34.163 25.8235H32.9966C31.7278 25.5137 30.5999 24.787 29.7934 23.76C28.9868 22.7331 28.5485 21.4652 28.5485 20.1595C28.5485 18.8538 28.9868 17.586 29.7934 16.559C30.5999 15.532 31.7278 14.8054 32.9966 14.4955H34.163C35.0447 14.458 35.9167 14.6905 36.6626 15.1619C37.6179 15.5701 38.4379 16.2406 39.0278 17.0956C39.6176 17.9506 39.9531 18.9552 39.9954 19.9929Z" fill="#23164C"/>
<path d="M11.6671 19.9929C11.6881 21.3369 11.2304 22.6446 10.3756 23.6823C9.52081 24.7199 8.32474 25.4198 7.0012 25.6569H5.83474C4.97027 25.7446 4.09938 25.5705 3.33517 25.1571C2.34034 24.7091 1.49606 23.9835 0.90379 23.0674C0.311522 22.1512 -0.00354004 21.0837 -0.00354004 19.9929C-0.00354004 18.9021 0.311522 17.8345 0.90379 16.9184C1.49606 16.0023 2.34034 15.2766 3.33517 14.8286C4.12444 14.4898 4.97582 14.3196 5.83474 14.3289H7.0012C8.32474 14.5659 9.52081 15.2658 10.3756 16.3034C11.2304 17.3411 11.6881 18.6488 11.6671 19.9929Z" fill="#23164C"/>
<path d="M25.8311 5.83302C25.8693 6.22945 25.8122 6.62926 25.6645 6.99914C25.3545 8.2675 24.6277 9.39515 23.6004 10.2014C22.5731 11.0077 21.3049 11.446 19.9988 11.446C18.6928 11.446 17.4245 11.0077 16.3972 10.2014C15.3699 9.39515 14.6431 8.2675 14.3331 6.99914C14.1854 6.62926 14.1283 6.22945 14.1665 5.83302C14.1289 4.95165 14.3615 4.07984 14.833 3.33419C15.2812 2.33965 16.007 1.49562 16.9234 0.903523C17.8398 0.31143 18.9077 -0.00354004 19.9988 -0.00354004C21.0899 -0.00354004 22.1578 0.31143 23.0742 0.903523C23.9906 1.49562 24.7164 2.33965 25.1646 3.33419H25.3312C25.6702 4.12323 25.8404 4.97436 25.8311 5.83302Z" fill="#23164C"/>
<path d="M25.8311 34.153C25.8404 35.0116 25.6702 35.8628 25.3312 36.6518H25.1646C24.7165 37.6463 23.9906 38.4904 23.0742 39.0825C22.1578 39.6746 21.0899 39.9895 19.9988 39.9895C18.9077 39.9895 17.8398 39.6746 16.9234 39.0825C16.0071 38.4904 15.2812 37.6463 14.8331 36.6518C14.3615 35.9062 14.129 35.0343 14.1665 34.153C14.1397 33.7569 14.1965 33.3596 14.3331 32.9869C14.6431 31.7185 15.37 30.5908 16.3972 29.7846C17.4245 28.9783 18.6928 28.54 19.9988 28.54C21.3049 28.54 22.5731 28.9783 23.6004 29.7846C24.6277 30.5908 25.3545 31.7185 25.6645 32.9869C25.8012 33.3596 25.858 33.7569 25.8311 34.153Z" fill="#23164C"/>
</g>
<defs>
<clipPath id="clip0_3842_32923">
<rect width="40" height="40" fill="white"/>
</clipPath>
</defs>
</svg>
